HIERARCHY
ROOT Hips
{
  OFFSET 5.84602e-005 68.8428 3.50346
  CHANNELS 6 Xposition Yposition Zposition Zrotation Xrotation Yrotation
  JOINT Spine
  {
    OFFSET 0 8.597 -4.6522
    CHANNELS 3 Zrotation Xrotation Yrotation
    JOINT Spine1
    {
      OFFSET 0 7.8454 0.4098
      CHANNELS 3 Zrotation Xrotation Yrotation
      JOINT Spine2
      {
        OFFSET 0 9.7078 -2.1609
        CHANNELS 3 Zrotation Xrotation Yrotation
        JOINT Neck
        {
          OFFSET 0 21.8761 -0.4549
          CHANNELS 3 Zrotation Xrotation Yrotation
          JOINT Head
          {
            OFFSET 0 12.3537 3.3602
            CHANNELS 3 Zrotation Xrotation Yrotation
            End Site
            {
              OFFSET 0.0001 18.9506 0.5657
            }
          }
        }
        JOINT LeftShoulder
        {
          OFFSET 2.2086 21.1115 7.2329
          CHANNELS 3 Zrotation Xrotation Yrotation
          JOINT LeftArm
          {
            OFFSET 13.1193 3.0282 -4.8998
            CHANNELS 3 Zrotation Xrotation Yrotation
            JOINT LeftForeArm
            {
              OFFSET 27.4081 -0.0973053 -0.2375
              CHANNELS 3 Zrotation Xrotation Yrotation
              JOINT LeftHand
              {
                OFFSET 22.8641 0.0662994 -0.1369
                CHANNELS 3 Zrotation Xrotation Yrotation
                JOINT LeftHandIndex1
                {
                  OFFSET 8.8614 0.775009 2.4612
                  CHANNELS 3 Zrotation Xrotation Yrotation
                  JOINT LeftHandIndex2
                  {
                    OFFSET 3.3146 -0.808304 0.5841
                    CHANNELS 3 Zrotation Xrotation Yrotation
                    JOINT LeftHandIndex3
                    {
                      OFFSET 2.2628 -0.552002 0.3989
                      CHANNELS 3 Zrotation Xrotation Yrotation
                      End Site
                      {
                        OFFSET 1.6102 -0.4807 0.2612
                      }
                    }
                  }
                }
                JOINT LeftHandMiddle1
                {
                  OFFSET 8.9937 0.895004 0.2143
                  CHANNELS 3 Zrotation Xrotation Yrotation
                  JOINT LeftHandMiddle2
                  {
                    OFFSET 4.0984 0.0113983 -0.0242
                    CHANNELS 3 Zrotation Xrotation Yrotation
                    JOINT LeftHandMiddle3
                    {
                      OFFSET 2.2716 0.00689697 -0.0138001
                      CHANNELS 3 Zrotation Xrotation Yrotation
                      End Site
                      {
                        OFFSET 2.0404 -0.1441 0.0027
                      }
                    }
                  }
                }
                JOINT LeftHandRing1
                {
                  OFFSET 8.5234 0.597198 -2.0164
                  CHANNELS 3 Zrotation Xrotation Yrotation
                  JOINT LeftHandRing2
                  {
                    OFFSET 3.7188 -0.188293 -0.2328
                    CHANNELS 3 Zrotation Xrotation Yrotation
                    JOINT LeftHandRing3
                    {
                      OFFSET 2.1191 -0.106598 -0.1332
                      CHANNELS 3 Zrotation Xrotation Yrotation
                      End Site
                      {
                        OFFSET 1.8737 -0.2304 -0.0886
                      }
                    }
                  }
                }
                JOINT LeftHandPinky1
                {
                  OFFSET 7.9094 -0.601089 -3.4825
                  CHANNELS 3 Zrotation Xrotation Yrotation
                  JOINT LeftHandPinky2
                  {
                    OFFSET 2.2874 -0.477005 -0.6314
                    CHANNELS 3 Zrotation Xrotation Yrotation
                    JOINT LeftHandPinky3
                    {
                      OFFSET 1.6774 -0.349396 -0.4633
                      CHANNELS 3 Zrotation Xrotation Yrotation
                      End Site
                      {
                        OFFSET 1.4888 -0.4091 -0.3416
                      }
                    }
                  }
                }
                JOINT LeftHandThumb1
                {
                  OFFSET 1.833 -1.3875 1.3896
                  CHANNELS 3 Zrotation Xrotation Yrotation
                  JOINT LeftHandThumb2
                  {
                    OFFSET 3.4129 -1.121 2.5732
                    CHANNELS 3 Zrotation Xrotation Yrotation
                    JOINT LeftHandThumb3
                    {
                      OFFSET 2.2474 -0.804199 1.6192
                      CHANNELS 3 Zrotation Xrotation Yrotation
                      End Site
                      {
                        OFFSET 1.6527 -0.5689 1.1317
                      }
                    }
                  }
                }
              }
            }
          }
        }
        JOINT RightShoulder
        {
          OFFSET -2.2086 21.1115 7.2329
          CHANNELS 3 Zrotation Xrotation Yrotation
          JOINT RightArm
          {
            OFFSET -13.1216 3.0287 -4.9007
            CHANNELS 3 Zrotation Xrotation Yrotation
            JOINT RightForeArm
            {
              OFFSET -27.4081 -0.0973053 -0.2375
              CHANNELS 3 Zrotation Xrotation Yrotation
              JOINT RightHand
              {
                OFFSET -22.8641 0.0664063 -0.1369
                CHANNELS 3 Zrotation Xrotation Yrotation
                JOINT RightHandIndex1
                {
                  OFFSET -8.8614 0.774994 2.4612
                  CHANNELS 3 Zrotation Xrotation Yrotation
                  JOINT RightHandIndex2
                  {
                    OFFSET -3.3146 -0.808304 0.5841
                    CHANNELS 3 Zrotation Xrotation Yrotation
                    JOINT RightHandIndex3
                    {
                      OFFSET -2.2628 -0.552002 0.3989
                      CHANNELS 3 Zrotation Xrotation Yrotation
                      End Site
                      {
                        OFFSET -1.6102 -0.4807 0.2612
                      }
                    }
                  }
                }
                JOINT RightHandMiddle1
                {
                  OFFSET -8.9937 0.894989 0.2143
                  CHANNELS 3 Zrotation Xrotation Yrotation
                  JOINT RightHandMiddle2
                  {
                    OFFSET -4.0984 0.0113983 -0.0242
                    CHANNELS 3 Zrotation Xrotation Yrotation
                    JOINT RightHandMiddle3
                    {
                      OFFSET -2.2716 0.00691223 -0.0138001
                      CHANNELS 3 Zrotation Xrotation Yrotation
                      End Site
                      {
                        OFFSET -2.0404 -0.1441 0.0027
                      }
                    }
                  }
                }
                JOINT RightHandRing1
                {
                  OFFSET -8.5234 0.597198 -2.0164
                  CHANNELS 3 Zrotation Xrotation Yrotation
                  JOINT RightHandRing2
                  {
                    OFFSET -3.7188 -0.188309 -0.2328
                    CHANNELS 3 Zrotation Xrotation Yrotation
                    JOINT RightHandRing3
                    {
                      OFFSET -2.1191 -0.106598 -0.1332
                      CHANNELS 3 Zrotation Xrotation Yrotation
                      End Site
                      {
                        OFFSET -1.8737 -0.2304 -0.0886
                      }
                    }
                  }
                }
                JOINT RightHandPinky1
                {
                  OFFSET -7.9094 -0.601105 -3.4825
                  CHANNELS 3 Zrotation Xrotation Yrotation
                  JOINT RightHandPinky2
                  {
                    OFFSET -2.2874 -0.477005 -0.6314
                    CHANNELS 3 Zrotation Xrotation Yrotation
                    JOINT RightHandPinky3
                    {
                      OFFSET -1.6774 -0.349396 -0.4633
                      CHANNELS 3 Zrotation Xrotation Yrotation
                      End Site
                      {
                        OFFSET -1.4888 -0.4091 -0.3416
                      }
                    }
                  }
                }
                JOINT RightHandThumb1
                {
                  OFFSET -1.833 -1.38751 1.3896
                  CHANNELS 3 Zrotation Xrotation Yrotation
                  JOINT RightHandThumb2
                  {
                    OFFSET -3.41299 -1.12099 2.5732
                    CHANNELS 3 Zrotation Xrotation Yrotation
                    JOINT RightHandThumb3
                    {
                      OFFSET -2.24741 -0.804108 1.6192
                      CHANNELS 3 Zrotation Xrotation Yrotation
                      End Site
                      {
                        OFFSET -1.6527 -0.5689 1.1317
                      }
                    }
                  }
                }
              }
            }
          }
        }
      }
    }
  }
  JOINT RightUpLeg
  {
    OFFSET -9.1966 3.8861 -0.7581
    CHANNELS 3 Zrotation Xrotation Yrotation
    JOINT RightLeg
    {
      OFFSET -0.7359 -41.0265 0
      CHANNELS 3 Zrotation Xrotation Yrotation
      JOINT RightFoot
      {
        OFFSET 0 -40.2855 0
        CHANNELS 3 Zrotation Xrotation Yrotation
        JOINT RightToeBase
        {
          OFFSET 0 -5.6122 11.7359
          CHANNELS 3 Zrotation Xrotation Yrotation
          End Site
          {
            OFFSET 0 0 7.8731
          }
        }
      }
    }
  }
  JOINT LeftUpLeg
  {
    OFFSET 9.1965 3.8864 -0.7581
    CHANNELS 3 Zrotation Xrotation Yrotation
    JOINT LeftLeg
    {
      OFFSET 0.7359 -41.0268 0
      CHANNELS 3 Zrotation Xrotation Yrotation
      JOINT LeftFoot
      {
        OFFSET 0 -40.2855 0
        CHANNELS 3 Zrotation Xrotation Yrotation
        JOINT LeftToeBase
        {
          OFFSET 0 -5.6122 11.7359
          CHANNELS 3 Zrotation Xrotation Yrotation
          End Site
          {
            OFFSET 0 0 7.8731
          }
        }
      }
    }
  }
}
MOTION
Frames:	6
Frame Time:	0.0333333
5.84602e-005 68.8428 3.50346 0 0 -0 0 0 -0 0 0 -0 0 0 -0 0 0 -0 0 0 -0 0 0 -0 0 0 -0 0 0 -0 0 0 -0 0 0 -0 0 0 -0 0 0 -0 0 0 -0 -0.0146107 -8.87603e-005 -2.63497e-007 2.99804e-018 -2.42657e-020 -1.42182e-022 0 0 -0 -0.0187562 -0.001176 5.858e-005 5.06224e-018 3.88251e-019 1.21329e-020 0 0 -0 -0.012269 -0.00324817 0.000675346 -1.74678e-018 3.88251e-019 -0 0 0 -0 0 0 -0 0 0 -0 0 0 -0 0 0 -0 0 0 -0 0 0 -0 0 0 -0 0 0 -0 0 0 -0 0 0 -0 0.0149955 -9.10982e-005 2.64101e-007 -9.69331e-018 1.21329e-020 -4.7394e-023 0 0 -0 0.0189956 -0.00119102 -5.96516e-005 -5.41541e-019 0 2.42657e-020 0 0 -0 0.0122698 -0.00324857 -0.000673756 -2.00796e-019 0 -1.94126e-019 0 0 -0 0 0 -0 0 0 -0 3.39842 1.33031 -0.0637918 -5.65207e-008 0.834868 -0.000436188 -3.39935 -2.16518 -0.0642563 -8.89002e-024 -1.18485e-023 -1.48106e-024 -3.39844 1.35642 0.0640283 -3.18788e-007 0.782166 -0.000588827 3.39931 -2.13858 0.0634662 1.1399e-023 0 -0 
-5.18924 -0.942996 -63.3706 90.1059 -80.9863 -179.891 2.03346 -3.06829 -0.260479 4.06166 -6.14382 -0.412505 4.06168 -6.14384 -0.412494 8.99785 -1.97971 0.312081 8.5383e-006 14.9982 5.62101e-006 -22.7388 1.49185 -15.4803 -45.7249 -2.16837 -59.5997 -5.16837 4.48578 0.166067 -61.0696 10.7761 -29.1056 -8.28372e-006 -7.06396e-007 -1.75731e-006 1.83668e-007 5.10803e-007 -6.5587e-007 -5.43063e-006 -1.02372e-006 -8.13475e-007 -8.28372e-006 -7.06396e-007 -1.75731e-006 -0.0146341 -8.7687e-005 -7.97677e-007 -5.43011e-006 -1.02362e-006 -8.13601e-007 -8.28372e-006 -7.06396e-007 -1.75731e-006 -0.0187864 -0.00117602 5.67657e-005 -5.42998e-006 -1.02355e-006 -8.13589e-007 -8.28372e-006 -7.06396e-007 -1.75731e-006 -0.0122469 -0.00324011 0.000675257 -5.43023e-006 -1.02349e-006 -8.13454e-007 -8.28372e-006 -7.06396e-007 -1.75731e-006 1.83668e-007 5.10803e-007 -6.5587e-007 -5.43063e-006 -1.02372e-006 -8.13475e-007 6.8773 -19.8376 -44.15 32.2817 10.4706 -16.4131 68.8889 -32.4391 6.59154 -32.4493 7.10822 12.6797 -3.18055e-015 -5.56597e-015 1.59028e-015 4.6346e-031 -5.56597e-015 4.77083e-015 1.65521e-031 -1.98785e-015 4.77083e-015 -3.18055e-015 -5.56597e-015 1.59028e-015 0.0149848 -9.00489e-005 -1.112e-006 -3.31043e-032 1.19271e-015 1.59028e-015 -3.18055e-015 -5.56597e-015 1.59028e-015 0.0189725 -0.00118717 -5.69007e-005 3.08973e-031 5.56597e-015 -3.18055e-015 -3.18055e-015 -5.56597e-015 1.59028e-015 0.0122698 -0.00325185 -0.000676344 -3.18055e-015 7.55382e-015 -0 -3.18055e-015 -5.56597e-015 1.59028e-015 4.6346e-031 -5.56597e-015 4.77083e-015 1.65521e-031 -1.98785e-015 4.77083e-015 -66.6927 -17.0986 -79.6223 144.893 47.6746 -138.654 1.89283 24.1176 11.4161 -7.26994e-007 -1.11258e-007 -3.17137e-006 -1.66816 15.3626 7.98998 -0.0170596 43.3789 -2.317 5.71092 40.1037 2.6245 1.47789e-008 4.54887e-007 -1.43609e-007 
-5.41415 -0.943153 -63.2565 90.1077 -81.4865 -179.889 2.03345 -3.06828 -0.260505 4.06168 -6.14385 -0.412499 4.06167 -6.14384 -0.412503 8.99822 -1.98026 0.311957 4.76824e-008 14.7063 9.95078e-006 -22.2487 0.948095 -14.6166 -46.1203 -1.55971 -60.3565 -5.68008 4.50606 0.165746 -60.7011 10.8039 -29.2529 3.67225e-007 1.02311e-006 -1.31043e-006 -2.37334e-007 -2.33354e-006 2.87324e-007 3.67225e-007 1.02311e-006 -1.31043e-006 3.67225e-007 1.02311e-006 -1.31043e-006 -0.0146326 -8.96568e-005 -1.04554e-006 3.67241e-007 1.02328e-006 -1.3103e-006 3.67225e-007 1.02311e-006 -1.31043e-006 -0.0188404 -0.0011828 6.10132e-005 3.67234e-007 1.02333e-006 -1.31027e-006 3.67225e-007 1.02311e-006 -1.31043e-006 -0.0122855 -0.00325253 0.000680065 3.67208e-007 1.02325e-006 -1.31034e-006 3.67225e-007 1.02311e-006 -1.31043e-006 -2.37334e-007 -2.33354e-006 2.87324e-007 3.67225e-007 1.02311e-006 -1.31043e-006 6.87731 -19.8376 -44.15 32.2817 10.4706 -16.4131 68.8889 -32.4391 6.59152 -32.4493 7.1082 12.6797 -1.97355e-006 -1.91147e-006 1.74994e-006 -1.97355e-006 -1.91147e-006 1.74994e-006 -1.97355e-006 -1.91147e-006 1.74994e-006 -1.97355e-006 -1.91147e-006 1.74994e-006 0.0150029 -9.43814e-005 -1.94451e-006 -2.37289e-006 -1.60381e-006 2.17568e-006 -1.97355e-006 -1.91147e-006 1.74994e-006 0.0189747 -0.00118967 -5.92736e-005 -1.9737e-006 -1.91117e-006 1.75028e-006 -1.97355e-006 -1.91147e-006 1.74994e-006 0.0122786 -0.00325651 -0.000665807 -1.9736e-006 -1.91126e-006 1.75021e-006 -1.97355e-006 -1.91147e-006 1.74994e-006 -1.97355e-006 -1.91147e-006 1.74994e-006 -1.97355e-006 -1.91147e-006 1.74994e-006 -66.9473 -17.5436 -80.3009 144.885 47.6802 -138.645 2.01556 24.1561 11.0617 2.38542e-015 1.59028e-015 -3.18055e-015 -1.68937 14.4567 8.02491 0.174264 44.0009 -2.42606 5.69457 40.1055 2.63037 -1.65553e-007 -4.34616e-007 1.58616e-007 
-5.63943 -0.943291 -63.1429 90.11 -81.9869 -179.887 2.0335 -3.06829 -0.260547 4.06166 -6.14384 -0.412492 4.06168 -6.14385 -0.412489 8.99788 -1.98035 0.31204 3.96523e-006 14.4143 -4.94676e-006 -21.7498 0.410981 -13.7471 -46.5078 -0.945268 -61.1096 -6.19189 4.52776 0.165361 -60.3324 10.8308 -29.4004 2.88142e-006 -3.33163e-007 9.77256e-007 -1.59028e-015 -6.36111e-015 -0 -2.88142e-006 3.33163e-007 -9.77256e-007 2.88142e-006 -3.33163e-007 9.77256e-007 -0.0145859 -8.76578e-005 -2.32418e-006 1.59028e-015 -9.54166e-015 4.77083e-015 2.88142e-006 -3.33163e-007 9.77256e-007 -0.0186827 -0.00117061 6.42439e-005 1.27222e-014 -9.54166e-015 4.77083e-015 2.88142e-006 -3.33163e-007 9.77256e-007 -0.0122876 -0.00325285 0.000680187 1.55052e-014 -3.18055e-015 7.95139e-015 2.88142e-006 -3.33163e-007 9.77256e-007 -1.59028e-015 -6.36111e-015 -0 -2.88142e-006 3.33163e-007 -9.77256e-007 6.87728 -19.8376 -44.15 32.2817 10.4706 -16.4131 68.8889 -32.4391 6.59153 -32.4493 7.1082 12.6797 1.96517e-006 1.92007e-006 -1.74546e-006 1.96517e-006 1.92007e-006 -1.74546e-006 2.41578e-006 1.62712e-006 -2.15676e-006 1.96517e-006 1.92007e-006 -1.74546e-006 0.0149891 -8.9964e-005 7.13713e-007 1.96531e-006 1.91984e-006 -1.74571e-006 1.96517e-006 1.92007e-006 -1.74546e-006 0.0190157 -0.00119196 -5.9296e-005 1.96533e-006 1.91977e-006 -1.7458e-006 1.96517e-006 1.92007e-006 -1.74546e-006 0.0122433 -0.00324401 -0.000674864 2.41451e-006 1.62722e-006 -2.15693e-006 1.96517e-006 1.92007e-006 -1.74546e-006 1.96517e-006 1.92007e-006 -1.74546e-006 2.41578e-006 1.62712e-006 -2.15676e-006 -67.2082 -17.9862 -80.9837 144.877 47.686 -138.636 2.13857 24.194 10.7071 -3.97252e-031 2.38542e-015 9.54166e-015 -1.70982 13.5501 8.05918 0.368397 44.6227 -2.53867 5.67866 40.1075 2.63609 1.5126e-007 1.09408e-007 1.38182e-007 
-5.86508 -0.943415 -63.0298 90.1126 -82.4874 -179.885 2.03347 -3.06835 -0.260462 4.06166 -6.14384 -0.412499 4.06167 -6.14383 -0.412509 8.99789 -1.9799 0.312039 -3.02971e-006 14.1221 -1.2794e-005 -21.242 -0.119232 -12.8717 -46.8876 -0.325281 -61.8591 -6.70381 4.55091 0.164973 -59.9636 10.8567 -29.5482 -2.78299e-015 0 -3.18055e-015 1.59028e-015 -6.36111e-015 -7.95139e-016 -3.57812e-015 0 1.59028e-015 -2.78299e-015 0 -3.18055e-015 -0.0146006 -8.92749e-005 -2.84657e-007 1.19271e-015 0 2.38542e-015 -2.78299e-015 0 -3.18055e-015 -0.0187998 -0.00117662 5.87346e-005 -1.59028e-015 6.36111e-015 7.95139e-016 -2.78299e-015 0 -3.18055e-015 -0.012228 -0.00324003 0.000675637 -1.98785e-015 3.18055e-015 -2.38542e-015 -2.78299e-015 0 -3.18055e-015 1.59028e-015 -6.36111e-015 -7.95139e-016 -3.57812e-015 0 1.59028e-015 6.87729 -19.8376 -44.15 32.2817 10.4706 -16.4131 68.8889 -32.4391 6.59152 -32.4493 7.1082 12.6797 5.00408e-007 -2.78527e-007 -3.97059e-007 -5.00408e-007 2.78527e-007 3.97059e-007 5.00408e-007 -2.78527e-007 -3.97059e-007 5.00408e-007 -2.78527e-007 -3.97059e-007 0.0149746 -8.50391e-005 4.2469e-006 -3.18055e-015 -3.97569e-016 1.59028e-015 5.00408e-007 -2.78527e-007 -3.97059e-007 0.0189896 -0.00119098 -6.54194e-005 2.20695e-031 -3.97569e-015 3.18055e-015 5.00408e-007 -2.78527e-007 -3.97059e-007 0.0122622 -0.00324082 -0.000678669 4.99083e-007 -2.78219e-007 -3.9697e-007 5.00408e-007 -2.78527e-007 -3.97059e-007 -5.00408e-007 2.78527e-007 3.97059e-007 5.00408e-007 -2.78527e-007 -3.97059e-007 -67.4756 -18.4259 -81.6707 144.869 47.6916 -138.627 2.26186 24.231 10.3523 8.82781e-032 -7.95139e-016 6.36111e-015 -1.72954 12.643 8.09287 0.565507 45.2438 -2.65499 5.66334 40.1097 2.64156 1.66964e-009 4.52818e-009 -3.01654e-007 
-6.09111 -0.943517 -62.9172 90.1154 -82.988 -179.882 2.03345 -3.06826 -0.260501 4.06167 -6.14386 -0.412482 4.06165 -6.14383 -0.41253 8.99812 -1.98017 0.311989 9.24599e-006 13.8297 5.70628e-006 -20.7256 -0.642225 -11.9905 -47.2593 0.300017 -62.6049 -7.21579 4.57548 0.164533 -59.5946 10.8817 -29.6961 1.83811e-007 5.13858e-007 -6.5314e-007 -1.19271e-015 0 7.95139e-016 -0 0 2.38542e-015 1.83811e-007 5.13858e-007 -6.5314e-007 -0.0145998 -8.87003e-005 7.21842e-007 -7.95139e-016 0 -1.59028e-015 1.83811e-007 5.13858e-007 -6.5314e-007 -0.0187107 -0.00117115 6.35555e-005 8.79205e-007 -3.27145e-007 1.21233e-006 1.83811e-007 5.13858e-007 -6.5314e-007 -0.0122667 -0.0032456 0.000671213 -1.19271e-015 2.22639e-014 1.59028e-015 1.83811e-007 5.13858e-007 -6.5314e-007 -1.19271e-015 0 7.95139e-016 -0 0 2.38542e-015 6.87731 -19.8376 -44.15 32.2817 10.4706 -16.4131 68.8889 -32.4391 6.59153 -32.4492 7.1082 12.6797 1.65521e-031 -1.19271e-015 7.95139e-015 1.59028e-015 -4.77083e-015 7.95139e-015 1.59028e-015 2.38542e-015 6.36111e-015 1.65521e-031 -1.19271e-015 7.95139e-015 0.0150011 -8.59956e-005 9.37176e-006 -3.18055e-015 9.93923e-015 -1.59028e-015 1.65521e-031 -1.19271e-015 7.95139e-015 0.0189837 -0.00119564 -6.09862e-005 -1.59028e-015 -3.57812e-015 -0 1.65521e-031 -1.19271e-015 7.95139e-015 0.0123045 -0.0032546 -0.000672311 -5.48889e-007 2.63765e-007 3.8272e-007 1.65521e-031 -1.19271e-015 7.95139e-015 1.59028e-015 -4.77083e-015 7.95139e-015 1.59028e-015 2.38542e-015 6.36111e-015 -67.7493 -18.8628 -82.362 144.861 47.6972 -138.618 2.38542 24.2675 9.9972 -4.86499e-007 1.10232e-006 7.73298e-008 -1.74861 11.7354 8.12596 0.765863 45.8645 -2.77515 5.6484 40.1122 2.64688 -9.90291e-009 -3.01651e-007 -4.43372e-009 
